<svg xmlns="http://www.w3.org/2000/svg" version="1.1" xmlns:xlink="http://www.w3.org/1999/xlink" width="2000" height="1500" viewBox="0 0 2000 1500"><rect width="2000" height="1500" x="0" y="0" id="background" stroke="transparent" fill="#f4c661"></rect><svg xml:space="preserve" width="1500" height="1125" data-version="2" data-id="lg_1svYYsxeFIHHxhbgo5" viewBox="0 0 726 370" x="250" y="187.5"><rect width="100%" height="100%" fill="transparent"></rect><path fill="#fff" d="M46.24 338.598q-.9 6.3.27 8.91 1.17 2.61 5.67 2.61 2.34 0 4.95-.27 2.61-.27 4.59-.45l1.98-.18 1.08 1.8-3.24 13.14-2.97-.09q-2.97-.09-7.29-.27-4.32-.18-8.91-.27-4.59-.09-7.83-.09-6.3 0-12.78.54-6.48.54-10.71.99l-4.23.45 2.52-11.7q7.74-1.44 10.62-4.68 2.88-3.24 3.96-10.98l8.64-69.12q.72-5.76-.18-7.74-.9-1.98-4.32-1.98-1.26 0-3.24.18l-1.98.18-.9-1.44 2.52-10.62 3.06.09q3.06.09 7.92.18 4.86.09 10.35.18 5.49.09 10.35.09 10.98 0 20.25-.18t16.47-.72q7.2-.54 12.24-1.26l1.08 1.8-1.26 4.68q-1.26 4.68-2.97 12.15-1.71 7.47-3.33 15.75l-15.66 1.08.36-1.8q.36-1.8.81-4.41.45-2.61.45-4.41 0-3.78-1.53-5.49-1.53-1.71-5.31-2.34-3.78-.63-10.62-.63-4.14 0-6.12.36-1.98.36-2.7 1.71-.72 1.35-1.26 4.05L52 300.258l16.2.18q2.7 0 7.11-.36t7.83-.81l3.42-.45 1.08 1.62-4.14 14.94-3.6-.18q-3.6-.18-8.37-.27-4.77-.09-8.73-.09-3.96 0-7.47.45t-5.85.81Z"></path><rect width="99.36" height="119.52" x="-49.68" y="-59.76" fill="none" rx="0" ry="0" transform="translate(57 306.16)"></rect><path fill="#fff" d="M120.4 365.598q-11.7 0-18.63-8.55t-6.93-23.49q0-11.7 3.33-21.69 3.33-9.99 9.36-17.55 6.03-7.56 14.13-11.79 8.1-4.23 17.64-4.23 12.24 0 18.99 7.83 6.75 7.83 6.75 22.23 0 12.06-3.33 22.5t-9.36 18.27q-6.03 7.83-14.13 12.15-8.1 4.32-17.82 4.32m7.2-14.04q4.86 0 8.28-3.96 3.42-3.96 5.31-11.79 1.89-7.83 1.89-19.17 0-11.16-2.79-16.92-2.79-5.76-8.37-5.76-4.68 0-8.19 3.78t-5.4 10.89q-1.89 7.11-1.89 17.37 0 12.42 2.97 18.99 2.97 6.57 8.19 6.57"></path><rect width="70.2" height="87.3" x="-35.1" y="-43.65" fill="none" rx="0" ry="0" transform="translate(130.44 322.45)"></rect><path fill="#fff" d="M199.96 365.598q-11.7 0-18.63-8.55t-6.93-23.49q0-11.7 3.33-21.69 3.33-9.99 9.36-17.55 6.03-7.56 14.13-11.79 8.1-4.23 17.64-4.23 12.24 0 18.99 7.83 6.75 7.83 6.75 22.23 0 12.06-3.33 22.5t-9.36 18.27q-6.03 7.83-14.13 12.15-8.1 4.32-17.82 4.32m7.2-14.04q4.86 0 8.28-3.96 3.42-3.96 5.31-11.79 1.89-7.83 1.89-19.17 0-11.16-2.79-16.92-2.79-5.76-8.37-5.76-4.68 0-8.19 3.78t-5.4 10.89q-1.89 7.11-1.89 17.37 0 12.42 2.97 18.99 2.97 6.57 8.19 6.57"></path><rect width="70.2" height="87.3" x="-35.1" y="-43.65" fill="none" rx="0" ry="0" transform="translate(210 322.45)"></rect><path fill="#fff" d="M318.22 345.078q.9 0 1.53-.45t2.97-2.34q2.34-1.89 7.56-6.39l3.06.36 2.88 6.3q-8.46 8.82-14.13 13.77-5.67 4.95-9.54 7.11-3.87 2.16-7.29 2.16-7.74 0-7.74-6.84 0-.9.54-3.6t1.26-6.39q.72-3.69 1.53-7.56.81-3.87 1.62-7.29t1.35-5.58l-1.44-.18q-8.1 14.58-15.03 23.49-6.93 8.91-14.13 13.95-9.54 0-14.85-6.93-5.31-6.93-5.31-19.17 0-10.98 3.69-21.6 3.69-10.62 9.99-19.26 6.3-8.64 13.95-13.77 7.65-5.13 15.57-5.13l12.6 2.7 4.32-31.86q.54-4.14-.99-6.03-1.53-1.89-5.67-1.89h-6.3l1.44-10.26q5.04 0 10.98-.27t11.34-.54q5.4-.27 8.73-.54l3.33-.27 2.16 2.88-1.08 5.4-2.97 14.85q-1.89 9.45-4.05 21.06t-4.5 24.03q-2.34 12.42-4.41 24.21-2.07 11.79-3.51 21.15Zm-39.42 0q2.7 0 7.47-6.48t10.08-17.01q5.31-10.53 10.17-22.77-1.62-1.08-4.23-2.25-2.61-1.17-5.67-2.07-3.06-.9-5.94-.9-3.78 0-7.47 5.22t-6.03 13.5q-2.34 8.28-2.34 17.1 0 6.66 1.08 11.16t2.88 4.5"></path><rect width="85.14" height="134.82" x="-42.57" y="-67.41" fill="none" rx="0" ry="0" transform="translate(296.13 298.69)"></rect><path fill="#fff" d="M349.9 335.358q.36 7.56 4.77 11.88 4.41 4.32 11.43 4.32 4.5 0 7.38-2.43t2.88-6.03q0-3.96-3.42-6.93-3.42-2.97-8.1-6.03-3.96-2.88-7.92-6.03-3.96-3.15-6.57-7.29-2.61-4.14-2.61-9.9 0-7.92 4.5-14.4t12.15-10.35q7.65-3.87 17.01-3.87 6.84 0 12.87 1.89 6.03 1.89 9.45 5.49-1.98 5.04-4.23 9.9-2.25 4.86-4.23 8.1h-3.42q-1.98-5.04-5.58-7.83t-7.92-2.79q-3.42 0-5.94 2.16-2.52 2.16-2.52 5.4 0 2.34 1.53 4.5t3.87 3.96q3.06 2.52 7.02 5.13 3.96 2.61 7.56 5.76 3.6 3.15 5.94 7.11 2.34 3.96 2.34 9.18 0 7.92-4.86 14.67t-12.87 10.71q-8.01 3.96-17.91 3.96-9.36 0-16.11-2.97t-8.37-7.83q.54-3.06 1.98-6.75t3.15-7.2q1.71-3.51 3.33-5.67Z"></path><rect width="65.7" height="87.3" x="-32.85" y="-43.65" fill="none" rx="0" ry="0" transform="translate(371.37 322.45)"></rect><path fill="#fff" d="M473.56 344.718q.72 0 1.8-.54t3.33-2.52q2.25-1.98 6.93-6.12l3.06.54 2.88 6.3q-7.92 8.28-13.59 13.32-5.67 5.04-9.81 7.38-4.14 2.34-7.38 2.34-8.46 0-8.46-7.74 0-2.88 1.17-7.92t3.15-11.07q1.98-6.03 3.78-12.15 1.8-6.12 3.06-11.25t1.26-8.01q0-3.06-1.26-4.77-1.26-1.71-3.6-1.71-2.88 0-7.38 5.67t-9.72 15.66q-5.22 9.99-10.44 23.13l-1.62 13.14q-.18 1.44-3.15 2.97-2.97 1.53-7.02 2.52-4.05.99-8.01.99l-2.34-2.7.9-5.58q.9-5.58 2.43-14.76 1.53-9.18 3.24-20.43 1.71-11.25 3.42-22.77t3.33-21.78q1.62-10.26 2.61-17.37.99-7.11 1.17-9.45.36-3.96-1.17-5.67-1.53-1.71-5.49-1.71h-6.3l1.44-10.26q5.04 0 10.98-.27t11.34-.54q5.4-.27 8.82-.54l3.42-.27 1.98 2.88-1.08 4.95q-1.08 4.95-2.88 13.68-1.8 8.73-4.05 19.71t-4.5 23.04q-2.25 12.06-4.05 23.94l1.08.18q7.74-15.84 15.39-26.37 7.65-10.53 14.31-14.49 8.82 0 14.4 5.13t5.58 13.05q0 3.78-1.71 9.99-1.71 6.21-4.14 13.23-2.43 7.02-4.59 13.5-2.16 6.48-3.06 10.98Z"></path><rect width="81.36" height="134.64" x="-40.68" y="-67.32" fill="none" rx="0" ry="0" transform="translate(451.38 298.6)"></rect><path fill="#fff" d="M563.92 345.078q.9 0 2.07-.72t3.51-2.79q2.34-2.07 6.48-5.67l3.06.36 2.88 6.3q-8.82 9-14.49 14.04-5.67 5.04-9.45 7.02-3.78 1.98-7.38 1.98-3.42 0-5.4-1.71-1.98-1.71-1.98-4.77 0-1.98 1.62-9.72t4.68-21.06l-1.44-.18q-8.1 14.58-15.03 23.4-6.93 8.82-14.13 14.04-9.54 0-14.85-6.84-5.31-6.84-5.31-19.08 0-10.98 3.69-21.69t9.9-19.35q6.21-8.64 13.95-13.77 7.74-5.13 15.66-5.13l15.66 3.06 1.26-3.96 2.16-1.08 13.86 2.34 1.44 3.06q-2.52 10.08-5.04 21.15-2.52 11.07-4.59 21.42-2.07 10.35-3.33 18.63Zm-39.24 0q1.98 0 5.22-3.87 3.24-3.87 7.11-10.35 3.87-6.48 7.92-14.76t7.47-17.28q-3.78-2.34-8.1-3.78t-7.56-1.44q-4.14 0-7.83 5.22-3.69 5.22-6.03 13.41-2.34 8.19-2.34 17.37 0 6.66 1.17 11.07t2.97 4.41"></path><rect width="83.16" height="87.84" x="-41.58" y="-43.92" fill="none" rx="0" ry="0" transform="translate(540.84 322.18)"></rect><path fill="#fff" d="m591.82 362.178.72-4.05q.72-4.05 1.8-10.62 1.08-6.57 2.34-14.13 1.26-7.56 2.34-14.67 1.08-7.11 1.8-12.42t.72-7.11q0-3.6-1.53-5.22-1.53-1.62-5.31-1.62h-6.3l1.62-10.44q4.86 0 10.71-.27 5.85-.27 11.16-.54 5.31-.27 8.73-.45l3.42-.18 2.16 2.88-1.35 4.59q-1.35 4.59-3.15 11.7-1.8 7.11-3.24 14.67h1.08q4.68-10.44 10.08-18.27t10.89-12.42q5.49-4.59 10.53-4.77 1.62.9 2.97 3.42t1.71 5.04q-.36 3.78-1.17 7.92-.81 4.14-1.8 7.74-.99 3.6-1.71 5.85l-.72 2.25-6.84.36q.18-3.42-.72-4.86-.9-1.44-2.52-1.44-5.22 0-12.15 9.63-6.93 9.63-13.59 26.37l-2.16 17.28q-.18 1.44-3.15 2.97-2.97 1.53-7.02 2.52-4.05.99-8.01.99Z"></path><rect width="67.32" height="86.04" x="-33.66" y="-43.02" fill="none" rx="0" ry="0" transform="translate(622.56 322.36)"></rect><path fill="#fff" d="M718.18 295.218q0 7.92-4.41 13.95-4.41 6.03-13.95 11.16t-25.38 10.17q0 8.28 3.06 13.14 3.06 4.86 8.46 4.86 5.04 0 9.81-3.69 4.77-3.69 8.37-10.53l3.24.36 5.58 7.02q-3.24 6.84-8.82 12.24t-12.15 8.55q-6.57 3.15-13.23 3.15-11.34 0-18.09-8.46t-6.75-22.86q0-10.98 3.69-20.97 3.69-9.99 10.08-17.91 6.39-7.92 14.58-12.51 8.19-4.59 17.01-4.59 8.82 0 13.86 4.41 5.04 4.41 5.04 12.51m-25.02-1.44q-4.14 0-7.83 3.33-3.69 3.33-6.3 9.18t-3.87 13.41q12.42-4.14 18.18-8.91 5.76-4.77 5.76-10.53 0-6.48-5.94-6.48"></path><rect width="64.26" height="87.3" x="-32.13" y="-43.65" fill="none" rx="0" ry="0" transform="translate(686.55 322.45)"></rect><path fill="#fff" d="M327.717 139.395h-12.433a.925.925 0 0 0-.922.922v4.164c0 .508.417.922.922.922h12.433a.929.929 0 0 0 .928-.925v-4.16a.925.925 0 0 0-.928-.923m13.336-9.071a.922.922 0 0 0-1.304-.004l-2.947 2.944a.932.932 0 0 0 0 1.308l8.793 8.79a.925.925 0 0 0 1.307.003l2.948-2.944a.925.925 0 0 0-.004-1.304zm-1.941 12.52a.922.922 0 0 0-1.304.003l-8.794 8.79a.922.922 0 0 0 0 1.305l2.941 2.944a.925.925 0 0 0 1.307 0l8.79-8.79a.925.925 0 0 0 .004-1.308zm-31.237-2.122h-4.164a.925.925 0 0 0-.919.928v12.434c0 .508.414.922.922.922h4.164a.925.925 0 0 0 .922-.922V141.65a.929.929 0 0 0-.925-.928m63.192 9.004h-12.434a.925.925 0 0 0-.928.919v4.163c0 .512.417.926.928.926h12.434a.925.925 0 0 0 .922-.922v-4.164a.922.922 0 0 0-.922-.922M279.945 8.644l155.672 15.109a1.485 1.485 0 0 0 1.618-1.33l.223-2.287a1.488 1.488 0 0 0-1.333-1.618L280.452 3.41a1.479 1.479 0 0 0-1.61 1.333l-.224 2.288a1.48 1.48 0 0 0 1.327 1.614m-.486 25.158h95.273a9.437 9.437 0 0 0-1.103 4.374c0 3.542 1.938 6.606 4.792 8.279a9.586 9.586 0 0 0-4.792 8.279c0 3.546 1.938 6.607 4.792 8.28a9.586 9.586 0 0 0-4.782 8.146h-.01l.007.064-.007.068c0 .11.03.214.032.324.017.359.046.715.104 1.061.052.353.123.692.213 1.029l.004.01a9.522 9.522 0 0 0 4.367 5.765 9.583 9.583 0 0 0-4.717 8.23c0 3.546 1.938 6.607 4.792 8.28a9.586 9.586 0 0 0-4.792 8.279 9.596 9.596 0 0 0 8.859 9.547l1.022-.029h1.705a1.485 1.485 0 0 0 1.482-1.482v-2.349a1.485 1.485 0 0 0-1.482-1.481h-1.712l-.045.006c-.168.013-.592.036-.563.039a4.264 4.264 0 0 1-3.953-4.251c0-1.52.809-2.902 2.167-3.695a5.312 5.312 0 0 0-.003-9.166 4.264 4.264 0 0 1-2.164-3.694c0-1.52.809-2.902 2.164-3.695a5.316 5.316 0 0 0 0-9.169 4.258 4.258 0 0 1-2.155-3.627c.023-1.491.819-2.847 2.158-3.63a5.312 5.312 0 0 0-.003-9.165 4.264 4.264 0 0 1-2.164-3.695c0-1.52.809-2.902 2.164-3.695a5.316 5.316 0 0 0 0-9.169 4.264 4.264 0 0 1-2.164-3.694c0-2.242 1.705-4.067 3.966-4.255l1.77.013v-.026h2.779a9.415 9.415 0 0 0-1.051 4.268c0 3.542 1.937 6.606 4.788 8.279a9.583 9.583 0 0 0-4.788 8.279c0 3.546 1.937 6.607 4.788 8.28a9.602 9.602 0 0 0-4.782 8.146h-.01l.007.064-.007.068c0 .11.03.214.033.324.016.359.045.715.103 1.061.052.353.123.692.214 1.029l.003.01a9.51 9.51 0 0 0 4.368 5.765 9.583 9.583 0 0 0-4.717 8.23c0 3.546 1.937 6.607 4.788 8.28a9.583 9.583 0 0 0-4.788 8.279 9.593 9.593 0 0 0 8.858 9.547l1.022-.029h1.702a1.485 1.485 0 0 0 1.482-1.482v-2.349a1.488 1.488 0 0 0-1.482-1.481h-1.712l-.045.006c-.168.013-.592.036-.563.039a4.264 4.264 0 0 1-3.953-4.251c0-1.52.808-2.902 2.167-3.695a5.312 5.312 0 0 0-.003-9.166 4.264 4.264 0 0 1-2.164-3.694c0-1.52.808-2.902 2.164-3.695a5.316 5.316 0 0 0 0-9.169 4.264 4.264 0 0 1-2.155-3.627c.023-1.491.822-2.847 2.158-3.63a5.312 5.312 0 0 0-.003-9.165 4.264 4.264 0 0 1-2.164-3.695c0-1.52.808-2.902 2.164-3.695a5.316 5.316 0 0 0 0-9.169 4.264 4.264 0 0 1-2.164-3.694c0-2.242 1.705-4.067 3.966-4.255l1.77.013v-.026h2.776a9.415 9.415 0 0 0-1.049 4.268c0 3.542 1.938 6.606 4.792 8.279a9.586 9.586 0 0 0-4.792 8.279c0 3.546 1.938 6.607 4.792 8.28a9.586 9.586 0 0 0-4.782 8.146h-.01l.007.064-.007.068c0 .11.03.214.033.324.016.359.045.715.103 1.061.052.353.123.692.214 1.029l.003.01a9.522 9.522 0 0 0 4.368 5.765 9.583 9.583 0 0 0-4.717 8.23c0 3.546 1.938 6.607 4.791 8.28a9.586 9.586 0 0 0-4.791 8.279 9.596 9.596 0 0 0 8.858 9.547l1.022-.029h1.702a1.482 1.482 0 0 0 1.482-1.482v-2.349a1.488 1.488 0 0 0-1.482-1.481h-1.711l-.046.006c-.168.013-.592.036-.563.039a4.267 4.267 0 0 1-3.953-4.251c0-1.52.809-2.902 2.167-3.695a5.319 5.319 0 0 0-.003-9.166 4.264 4.264 0 0 1-2.164-3.694c0-1.52.809-2.902 2.164-3.695a5.322 5.322 0 0 0 0-9.169 4.264 4.264 0 0 1-2.154-3.627c.022-1.491.821-2.847 2.157-3.63a5.319 5.319 0 0 0-.003-9.165 4.264 4.264 0 0 1-2.164-3.695c0-1.52.809-2.902 2.164-3.695a5.322 5.322 0 0 0 0-9.169 4.264 4.264 0 0 1-2.164-3.694c0-2.242 1.702-4.067 3.966-4.255l1.77.013v-.026h2.776a9.415 9.415 0 0 0-1.048 4.268c0 3.542 1.938 6.606 4.791 8.279a9.586 9.586 0 0 0-4.791 8.279c0 3.546 1.938 6.607 4.791 8.28a9.586 9.586 0 0 0-4.782 8.146h-.016l.007.064-.007.068c0 .11.03.214.033.324.016.359.045.715.103 1.061.052.353.123.692.214 1.029l.003.01a9.522 9.522 0 0 0 4.368 5.765 9.583 9.583 0 0 0-4.718 8.23c0 3.546 1.938 6.607 4.792 8.28a9.586 9.586 0 0 0-4.792 8.279 9.596 9.596 0 0 0 8.859 9.547l1.022-.029h1.702a1.485 1.485 0 0 0 1.482-1.482v-2.349a1.488 1.488 0 0 0-1.482-1.481h-1.712l-.045.006c-.168.013-.592.036-.563.039a4.267 4.267 0 0 1-3.953-4.251c0-1.52.808-2.902 2.167-3.695a5.312 5.312 0 0 0-.003-9.166 4.264 4.264 0 0 1-2.164-3.694c0-1.52.808-2.902 2.164-3.695a5.316 5.316 0 0 0 0-9.169 4.264 4.264 0 0 1-2.155-3.627c.023-1.491.822-2.847 2.158-3.63a5.312 5.312 0 0 0-.003-9.165 4.264 4.264 0 0 1-2.164-3.695c0-1.52.808-2.902 2.164-3.695a5.316 5.316 0 0 0 0-9.169 4.264 4.264 0 0 1-2.164-3.694c0-2.242 1.701-4.067 3.966-4.255l1.77.013v-.026h2.776a9.421 9.421 0 0 0-1.049 4.268c0 3.542 1.938 6.606 4.792 8.279a9.586 9.586 0 0 0-4.792 8.279c0 3.546 1.938 6.607 4.792 8.28a9.586 9.586 0 0 0-4.782 8.146h-.01l.007.064-.007.068c0 .11.026.214.033.324.016.359.045.715.103 1.061.052.353.123.692.214 1.029l.003.01a9.522 9.522 0 0 0 4.368 5.765 9.583 9.583 0 0 0-4.717 8.23c0 3.546 1.938 6.607 4.791 8.28a9.586 9.586 0 0 0-4.791 8.279 9.596 9.596 0 0 0 8.858 9.547l1.022-.029h1.702a1.485 1.485 0 0 0 1.482-1.482v-2.349a1.485 1.485 0 0 0-1.482-1.481h-1.711l-.046.006c-.168.013-.592.036-.563.039a4.267 4.267 0 0 1-3.953-4.251c0-1.52.809-2.902 2.167-3.695a5.312 5.312 0 0 0-.003-9.166 4.264 4.264 0 0 1-2.164-3.694c0-1.52.809-2.902 2.164-3.695a5.316 5.316 0 0 0 0-9.169 4.264 4.264 0 0 1-2.155-3.627c.023-1.491.822-2.847 2.158-3.63a5.312 5.312 0 0 0-.003-9.165 4.264 4.264 0 0 1-2.164-3.695c0-1.52.809-2.902 2.164-3.695a5.316 5.316 0 0 0 0-9.169 4.264 4.264 0 0 1-2.164-3.694c0-2.242 1.705-4.067 3.966-4.255l1.77.013v-.026h.57a1.485 1.485 0 0 0 1.481-1.481v-2.323a1.485 1.485 0 0 0-1.482-1.482h-53.492l-.032.003h-.334c-.13.01-.249.052-.375.068a1.456 1.456 0 0 0-.624-.149H279.459a1.482 1.482 0 0 0-1.478 1.482v2.3a1.485 1.485 0 0 0 1.478 1.476m206.603 86.085H359.818c.595.404 1.145.854 1.682 1.32.097.087.21.158.307.245a17.147 17.147 0 0 1 1.46 1.527c.084.1.184.185.268.288.46.56.877 1.175 1.275 1.809.064.097.139.181.2.285.45.744.854 1.536 1.217 2.384h.116c1.023 0 2.006.039 2.964.1.333.023.65.055.974.084.614.055 1.22.12 1.805.198a33.275 33.275 0 0 1 2.685.485c.307.068.621.133.919.21.796.207 1.572.434 2.307.702h86.573c-4.927 5.691-9.92 14.63-13.223 28.516-3.723 15.708-8.379 25.165-13.559 30.39-5.163 5.18-10.893 6.949-19.133 7.01h-13.44c2.97-2.885 5.814-6.541 8.302-11.158 3.2-5.947 8.218-9.169 12.66-10.977a30.5 30.5 0 0 1 5.357-1.625h8.02a1.488 1.488 0 0 0 1.483-1.481v-6.672a1.485 1.485 0 0 0-1.482-1.478H419.99c-1.79-4.75-4.75-8.654-8.794-11.24-4.972-3.209-11.116-4.461-18.156-4.464h-.586a47.87 47.87 0 0 0-5.856.343c-1.83-4.43-4.74-8.06-8.602-10.505-4.306-2.747-9.483-4.044-15.361-4.336a21.78 21.78 0 0 0-8.985-8.576c-4.61-2.378-10.046-3.336-16.199-3.336h-.586c-6.95 0-13.048 1.233-17.959 4.342a50.815 50.815 0 0 0-4.562-.194h-.582c-8.282-.007-15.413 1.763-20.677 6.364-4.396 3.846-6.975 9.33-7.99 15.995-5.928.356-11.134 1.757-15.42 4.675-3.834 2.585-6.64 6.36-8.364 10.935H238.77a1.485 1.485 0 0 0-1.485 1.479v6.67c0 .82.666 1.483 1.485 1.483h8.027c4.406.918 13.44 3.908 18 12.601 8.374 15.555 20.794 20.421 28.556 20.405h91.652c1.097 0 2.291-.11 3.546-.32h30.454c9.425 0 18.257-2.585 25.158-9.69 6.972-7.147 11.928-18.108 15.869-34.572 3.682-15.426 9.282-23.175 13.592-27.131 2.031-1.86 3.782-2.877 5.024-3.453h7.412a1.488 1.488 0 0 0 1.482-1.481v-6.671a1.482 1.482 0 0 0-1.479-1.485M274.71 158.474c2.947-2.025 7.373-3.213 13.578-3.21h.512c.038 0 .148.007.323.007a4.465 4.465 0 0 0 4.452-4.19c.462-7.156 2.44-11.33 5.4-13.934 2.963-2.618 7.677-4.145 14.795-4.151h.582c1.863 0 3.575.107 5.134.314a4.47 4.47 0 0 0 3.284-.867c2.964-2.265 7.519-3.591 14.1-3.591h.585c5.232-.007 9.237.847 12.097 2.339 2.863 1.514 4.766 3.533 6.199 6.8a4.451 4.451 0 0 0 4.102 2.711h.12c5.953-.006 10.285 1.097 13.21 2.99 2.915 1.905 4.859 4.571 6.069 9.162a4.461 4.461 0 0 0 5.354 3.236c2.24-.534 4.844-.822 7.853-.822h.585c6.011-.007 10.366 1.113 13.307 3.025 1.495.993 2.734 2.193 3.75 3.753H271.24a12.682 12.682 0 0 1 3.469-3.572m110.256 37.287h-91.614c-4.284-.016-13.75-2.818-20.7-15.71a33 33 0 0 0-6.561-8.364l.016-.01h146.116a32.997 32.997 0 0 0-6.568 8.37c-6.94 12.896-16.41 15.694-20.69 15.714"></path></svg></svg>