<?xml version="1.0" standalone="no"?>
<!DOCTYPE svg PUBLIC "-//W3C//DTD SVG 20010904//EN"
 "http://www.w3.org/TR/2001/REC-SVG-20010904/DTD/svg10.dtd">
<svg version="1.0" xmlns="http://www.w3.org/2000/svg"
 width="64.000000pt" height="64.000000pt" viewBox="0 0 64.000000 64.000000"
 preserveAspectRatio="xMidYMid meet">

<g transform="translate(0.000000,64.000000) scale(0.100000,-0.100000)"
fill="#000000" stroke="none">
<path d="M120 600 c-19 -19 -20 -33 -20 -250 0 -217 1 -231 20 -250 11 -11 31
-20 45 -20 21 0 25 -5 25 -30 0 -34 6 -37 32 -13 17 15 19 15 36 0 26 -24 32
-21 32 13 l0 30 113 0 c75 0 117 4 125 12 17 17 17 499 0 516 -8 8 -67 12
-200 12 -175 0 -189 -1 -208 -20z m398 -202 l2 -198 -184 0 c-101 0 -191 -3
-200 -6 -14 -5 -16 15 -16 188 0 139 3 197 12 206 9 9 62 12 198 10 l185 -3 3
-197z m0 -255 l-3 -38 -112 -3 c-96 -2 -113 0 -113 13 0 12 17 15 100 15 60 0
100 4 100 10 0 6 -62 10 -165 10 -103 0 -165 -4 -165 -10 0 -5 7 -10 15 -10 8
0 15 -7 15 -15 0 -18 -41 -20 -58 -3 -7 7 -12 19 -12 28 0 36 20 40 213 40
l188 0 -3 -37z m-248 -49 c0 -31 -2 -35 -15 -24 -12 10 -18 10 -30 0 -13 -11
-15 -7 -15 24 0 33 2 36 30 36 28 0 30 -3 30 -36z"/>
<path d="M267 530 c-14 -11 -33 -20 -42 -20 -9 0 -27 -11 -40 -25 -33 -32 -33
-78 -1 -110 18 -18 26 -38 28 -72 l3 -48 105 0 105 0 3 48 c2 34 10 54 28 72
32 32 32 78 -1 110 -13 14 -31 25 -40 25 -9 0 -28 9 -42 20 -14 11 -38 20 -53
20 -15 0 -39 -9 -53 -20z m93 -20 c11 -11 20 -27 20 -35 0 -8 5 -15 10 -15 6
0 10 7 10 15 0 21 16 19 40 -5 38 -38 18 -86 -40 -100 -32 -7 -33 -9 -12 -15
12 -4 22 -15 22 -26 0 -17 -9 -19 -90 -19 -81 0 -90 2 -90 19 0 11 10 22 23
26 20 6 19 8 -13 15 -58 14 -78 62 -40 100 24 24 40 26 40 5 0 -8 5 -15 10
-15 6 0 10 7 10 15 0 22 37 55 60 55 11 0 29 -9 40 -20z m50 -230 c0 -6 -37
-10 -90 -10 -53 0 -90 4 -90 10 0 6 37 10 90 10 53 0 90 -4 90 -10z"/>
</g>
</svg>
